<svg width="512" height="512" version="1.1" viewBox="197.737 230.039 512 512" xmlns="http://www.w3.org/2000/svg"><path d="m634.118 479.031-5.90718 142.31-272.964 62.7988-9.76384-165.009z" fill="#af8b67"/><path d="m507.17 288.006 37.0096 81.928-257.819 44.7942-32.9566-88.9776z" fill="#e0c8b0"/><path d="m612.899 287.938 96.8376 81.5401-75.3708 91.2752-90.186-90.819z" fill="#d5b699"/><path d="m197.737 367.589 88.6238 47.1392 59.123 104.403-90.7042-51.6166z" fill="#d3b9a0"/><path d="m544.18 369.934-4.11635 110.103-194.58 39.0949-59.1237-104.404z" fill="#a08165"/><path d="m544.18 369.934 90.186 90.819-94.2969 19.1188z" fill="#916945"/><path d="m688.607 467.565-303.35 63.2513-39.7735-11.685 288.882-58.3784z" fill="#d5b79d"/><path d="m285.044 484.794 60.4396 34.3368 9.76384 165.008-65.6895-113.514z" fill="#c1a389"/><path d="m555.657 573.515-39.5621-31.2153-24.4231-1.38697-67.7284 42.3849 32.2867 32.574 24.7787 6.38708z" fill="#582f09"/></svg>
