<svg version="1.1" viewBox="0 0 512 512" xmlns="http://www.w3.org/2000/svg" xmlns:xlink="http://www.w3.org/1999/xlink"><rect x="186.387" y="85.0413" width="12" height="300" fill="#DDC"/><rect x="141.846" y="86.1276" width="12" height="300" fill="#DDC"/><path d="m224.453 317.178a32.0612 32.0612 0 00-32.0553-31.8596 32.0612 32.0612 0 00-22.0225 9.29899 32.0612 32.0612 0 00-22.5176-9.29899 32.0612 32.0612 0 00-32.0612 32.0612h6.01147a26.0497 26.0497 0 0126.0497-26.0497 26.0497 26.0497 0 0118.3964 7.60827 26.0497 26.0497 0 014.0096 5.21112 26.0497 26.0497 0 013.94894-4.97042 26.0497 26.0497 0 0118.1851-7.84896 26.0497 26.0497 0 0126.0497 26.0497h5.79426c.113886 0 .202328-.0900701.211341-.201556z" fill="#DDC"/><rect x="441.781" y="97.7237" width="70" height="400" fill="#556"/><path d="m360.833 317.38a180 180 0 01-90 155.885 180 180 0 01-180 0 180 180 0 01-90-155.885" fill="#945"/><rect x="311.781" y="457.724" width="200" height="40" fill="#556"/><circle cx="311.781" cy="477.724" r="20" fill="#556"/><circle cx="441.781" cy="97.7237" r="70" fill="#89A"/><rect x="131.781" y="27.7237" width="310" height="140" fill="#89A"/><circle cx="131.781" cy="97.7237" r="70" fill="#89A"/></svg>
