<svg version="1.1" viewBox="0 0 512 512" xmlns="http://www.w3.org/2000/svg"><path d="m303.224 243.407 61.9943 28.9534c14.3611 2.58362 20.9822.623933 30.9971-4.42816 0 0 110.961-114.457 113.429-119.56 4.00199-8.27419 2.70434-19.0748-2.3844-26.2283-7.46148-10.489-76.3006-56.2036-76.3006-56.2036-4.36364-3.36364-25.8056-3.09906-30.6565 3.06565 0 0-98.639 102.936-105.595 123.648-4.21507 12.551 0 19.9804-4.68554 32.5517z" fill="#abb"/><path d="m.975627 440.774c15.4926 31.4278 127.925-46.9204 127.925-46.9204s36.7396-23.9029 58.4292-43.3793c21.6896-19.4764 53.7491-49.9743 61.0851-54.4454 71.5052-43.5813 73.9905-36.3726 85.8071-38.1448 8.71544-1.30713-7.90144-8.77564-22.5087-18.9565s-21.6896-13.722-21.6896-13.722-9.90059 9.21613-17.2632 14.6073c-45.4566 33.2851-96.1036 58.1588-158.91 95.6114-14.9967 8.94285-68.6101 44.7072-85.8732 60.1998-17.2632 15.4926-27.444 27.444-27.8867 33.1984-.442646 5.75439.885291 11.9514.885291 11.9514z" fill="#111"/><path d="m45.7393 440.768c14.6131-28.5258 202.675-144.739 202.675-144.739 2.92837.138408-129.63 123.154-202.675 144.739z" fill="#666"/></svg>
